<svg xmlns="http://www.w3.org/2000/svg" width="800" height="1000" viewBox="0 0 800 1000">
  <path fill="#F78B23" d="M390 0c177.3 0 260.7 216.6 140.2 332.8h175.1L484.6 553.5c119.5 119.5 32.7 332.8-147.3 332.8h58c168.1 0 283.2-198.8 153.2-332.8H390v221h-58.8v-.7c-121 2.8-211.8-122.4-140.2-221.7H85.4l198.8-221.1c-2.1-2.1-2.1-4.2-4.2-4.2-89.7-119.5 4.9-238.9 140.2-238.9 0 0 34.8-88 169.8-88zM4 823.8h103.9c8 0 12.6 12.6 8.4 19l-77.4 153.2c-5.6 10.5-22.4 4.2-19-8.4l24.5-145.5c0-1.4-1.4-2.1-3.5-2.1H9.1c-10.5 0-12.6-10.5-7-16.2zM181.7 823.8h81.3c9.1 0 14.7 9.1 9.8 16.9l-56.4 94.1 64 82.3c4.2 7 0 16.2-9.1 16.2h-76.7c-5.6 0-9.1-2.1-11.9-5.6l-34.1-48.6-33.4 48.6c-2.8 3.5-6.3 5.6-11.9 5.6H52c-9.1 0-13.3-9.1-9.1-16.2l65.4-82.3-56.4-94.1c-4.9-7.7.7-16.9 10.5-16.9h82.3c4.9 0 9.1 2.1 11.2 5.6l25.2 40.7 26.6-40.7c1.4-3.5 5.6-5.6 11.2-5.6z"/>
  <path fill="#F78B23" d="M390 823.8c76 0 128 55 128 106.7 0 35.5-22.4 67.5-59.5 86.5-5.6 2.8-11.9-1.4-11.9-8.4v-25.9c0-7.7 4.2-11.2 9.8-14 16.9-9.1 28.7-21.7 28.7-40 0-28-29.3-53.6-75.3-53.6h-167c-14 0-25.2 11.2-25.2 25.2v178.4c0 14 11.2 25.2 25.2 25.2h171.2c14 0 25.2-11.2 25.2-25.2v-32c0-5.6 4.2-9.8 9.8-9.8h32c5.6 0 9.8 4.2 9.8 9.8v40.6c0 39.2-31.3 70.5-70.5 70.5H228.9c-39.9 0-71.2-31.3-71.2-70.5V871.7c0-39.2 31.3-70.5 71.2-70.5h161.1v22.6zm140.2 0c-14.7 0-25.9 6.3-35.5 16.9 0 0-86.5 93.4-88.6 95.5-2.1 2.8-2.8 5.6-2.8 7.7 0 5.6 4.2 9.8 9.8 9.8h61.6c4.2 0 7 5.6 4.2 9.1-2.8 3.5-34.8 37.6-34.8 37.6-2.8 2.8-2.8 7 0 9.1l14.7 14.7c2.8 2.8 7 2.8 9.8 0l89.3-101.1c19-24.5 14.7-54.3-7-69.8-6.2-3.5-13.9-5.6-20.7-5.6v-23.9z"/>
  <path fill="#F78B23" d="M625 823.8c-16.2 0-28 7.7-38.3 17.6L493.8 938.9c-2.8 2.8-2.8 7.7 0 9.8l14.7 14.7c2.8 2.8 7 2.8 9.8 0l84.4-89.7c1.4-1.4 2.8-2.8 4.9-2.8 4.2 0 7.7 4.2 7.7 8.4v87.2c0 4.2 4.2 7.7 8.4 7.7h27.3c4.2 0 7.7-3.5 7.7-7.7v-84.4c0-4.2 4.2-7.7 7.7-7.7 1.4 0 3.5.7 4.9 2.8l84.4 89.7c2.8 2.8 7 2.8 9.8 0l14.7-14.7c2.8-2.8 2.8-7.7 0-9.8l-91.4-97.4c-10.5-12.6-23.8-17.6-38.3-17.6H625v-21.2z"/>
</svg>
